<svg height="512pt" viewBox="0 -73 512 511" width="512pt" xmlns="http://www.w3.org/2000/svg"><path d="m225.539062 113.273438c0 34.089843-17.359374 60.585937-36.703124 86.960937l-76.066407 103.265625-.183593.234375-75.882813-103.5c-19.34375-26.375-36.703125-52.878906-36.703125-86.960937 0-62.183594 50.585938-112.773438 112.757812-112.773438h.472657c61.96875.25 112.308593 50.746094 112.308593 112.773438zm0 0" fill="#ff623f"/><path d="m171.976562 113.273438c0 32.644531-26.5625 59.199218-59.207031 59.199218s-59.207031-26.558594-59.207031-59.199218c0-32.652344 26.5625-59.207032 59.207031-59.207032s59.207031 26.554688 59.207031 59.207032zm0 0" fill="#fff"/><path d="m225.539062 113.273438c0 34.089843-17.359374 60.585937-36.703124 86.960937l-76.066407 103.265625v-303h.460938c61.96875.25 112.308593 50.746094 112.308593 112.773438zm0 0" fill="#e30020"/><path d="m112.769531 172.472656v-118.40625c32.644531 0 59.207031 26.554688 59.207031 59.207032 0 32.640624-26.5625 59.199218-59.207031 59.199218zm0 0" fill="#d6d6d8"/><path d="m512 113.273438c0 34.089843-17.359375 60.585937-36.703125 86.960937l-76.066406 103.265625-.183594.234375-75.886719-103.5c-19.339844-26.375-36.703125-52.878906-36.703125-86.964844 0-62.183593 50.585938-112.769531 112.757813-112.769531h.472656c61.96875.25 112.3125 50.746094 112.3125 112.773438zm0 0" fill="#ff623f"/><path d="m458.4375 113.273438c0 32.644531-26.5625 59.199218-59.207031 59.199218s-59.207031-26.558594-59.207031-59.199218c0-32.652344 26.5625-59.207032 59.207031-59.207032s59.207031 26.554688 59.207031 59.207032zm0 0" fill="#fff"/><path d="m512 113.273438c0 34.089843-17.359375 60.585937-36.703125 86.960937l-76.066406 103.265625v-303h.457031c61.96875.25 112.3125 50.746094 112.3125 112.773438zm0 0" fill="#e30020"/><path d="m399.230469 172.472656v-118.40625c32.644531 0 59.207031 26.554688 59.207031 59.207032 0 32.640624-26.5625 59.199218-59.207031 59.199218zm0 0" fill="#d6d6d8"/><path d="m165.367188 312.8125c0 29.003906-23.59375 52.597656-52.597657 52.597656-29.003906 0-52.597656-23.59375-52.597656-52.597656 0-28.996094 23.59375-52.597656 52.597656-52.597656 29.003907 0 52.597657 23.601562 52.597657 52.597656zm0 0" fill="#00da78"/><path d="m150.34375 297.789062h36.691406v30.054688h-36.691406zm0 0" fill="#ffd200"/><path d="m208.449219 297.789062h36.695312v30.054688h-36.695312zm0 0" fill="#ffd200"/><path d="m266.558594 297.789062h36.699218v30.054688h-36.699218zm0 0" fill="#eab100"/><path d="m324.667969 297.789062h36.695312v30.054688h-36.695312zm0 0" fill="#eab100"/><path d="m165.367188 312.8125c0 29.003906-23.59375 52.597656-52.597657 52.597656v-105.195312c29.003907 0 52.597657 23.601562 52.597657 52.597656zm0 0" fill="#00b77a"/><path d="m451.828125 312.8125c0 29.003906-23.59375 52.597656-52.597656 52.597656-29.007813 0-52.601563-23.59375-52.601563-52.597656 0-28.996094 23.59375-52.597656 52.601563-52.597656 29.003906 0 52.597656 23.601562 52.597656 52.597656zm0 0" fill="#00da78"/><path d="m451.828125 312.8125c0 29.003906-23.59375 52.597656-52.597656 52.597656v-105.195312c29.003906 0 52.597656 23.601562 52.597656 52.597656zm0 0" fill="#00b77a"/></svg>