<?xml version="1.0"?>
<svg xmlns="http://www.w3.org/2000/svg" xmlns:xlink="http://www.w3.org/1999/xlink" version="1.1" id="Capa_1" x="0px" y="0px" viewBox="0 0 512 512" style="enable-background:new 0 0 512 512;" xml:space="preserve" width="512px" height="512px" class=""><g><g>
	<path style="fill:#00FFFF" d="M151.973,473.973h-0.46c-10.499-7.85-11.879-51.187-11.669-64.886h42.558   C194.781,459.144,166.272,473.973,151.973,473.973z" data-original="#B1FFFF" class="active-path" data-old_color="#B1FFFF"/>
	<path style="fill:#00FFFF" d="M125.974,307.123c-15.659-68.136-24.829-173.44,40.638-198.129   c54.897,7.09,29.918,143.672,15.999,198.099L125.974,307.123z" data-original="#B1FFFF" class="active-path" data-old_color="#B1FFFF"/>
	<path style="fill:#00FFFF" d="M329.503,338.411h42.548c0.32,19.539-2.14,57.757-11.659,64.886   C352.532,404.117,315.834,393.868,329.503,338.411z" data-original="#B1FFFF" class="active-path" data-old_color="#B1FFFF"/>
</g><g>
	<path style="fill:#FFFFFF" d="M209.5,371.069H104.506c-4.49,38.638-6.83,109.404,23.999,133.063   c13.449,10.349,29.538,9.479,45.387,3.21c20.909-8.29,35.458-21.759,43.258-39.998C231.309,433.975,219.789,399.787,209.5,371.069z    M202.39,461.064c-6.06,14.199-17.639,24.779-34.438,31.428c-12.619,5-22.349,4.67-29.728-1   c-21.889-16.819-21.769-75.606-19.349-104.384h79.765c5.46,14.939,14.859,47.867,3.75,73.926V461.064z" data-original="#304FFE" class="" data-old_color="#ffffff"/>
	<path style="fill:#FFFFFF" d="M161.692,70.616c-10.189,5.38-80.395,17.619-84.715,134.422c-1.9,50.667,8,94.845,19.719,140.082   H211.39c19.999-65.526,46.157-190.579,6.63-246.136C196.62,68.906,163.252,70.996,161.692,70.616z M199.5,329.121h-90.695   c-6.45-24.139-17.739-74.226-15.899-123.483c2.42-64.646,26.279-104.644,70.916-118.933c17.999,0.92,31.498,8,41.158,21.549   C239.178,156.301,215.779,271.985,199.5,329.121L199.5,329.121z" data-original="#304FFE" class="" data-old_color="#ffffff"/>
	<path style="fill:#FFFFFF" d="M407.419,300.413H302.424c-2.51,7-24.999,55.537-7.61,96.235   c7.8,18.279,22.349,31.748,43.258,39.998c15.849,6.27,31.938,7.14,45.387-3.21c15.529-11.939,24.359-37.078,26.249-74.746   C410.622,339.235,409.856,319.737,407.419,300.413z M393.739,357.98c-1.62,32.308-8.549,54.047-19.999,62.866   c-7.39,5.68-17.119,6-29.738,1c-16.799-6.65-28.378-17.229-34.438-31.428c-11.109-26.059-1.71-58.997,3.75-73.996h79.725   C394.134,330.246,394.368,344.126,393.739,357.98z" data-original="#304FFE" class="" data-old_color="#ffffff"/>
	<path style="fill:#FFFFFF" d="M435.007,134.382C430.427,11.869,352.052,1.57,350.242,0c-2.13,0.47-34.818-1.9-56.277,28.328   c-39.578,55.557-13.409,180.66,6.58,246.136h114.743C427.247,228.337,436.957,185.279,435.007,134.382z M403.129,258.465h-90.695   c-16.259-56.997-39.688-172.79-5.49-220.857c9.659-13.609,23.139-20.609,41.168-21.559c44.637,14.299,68.496,54.297,70.916,118.933   C420.868,184.24,409.578,234.327,403.129,258.465z" data-original="#304FFE" class="" data-old_color="#ffffff"/>
</g><path style="fill:#00FFFF" d="M329.293,236.467c-13.999-54.727-38.728-190.989,15.999-198.099  c65.506,24.629,56.317,129.983,40.668,198.099H329.293z" data-original="#B1FFFF" class="active-path" data-old_color="#B1FFFF"/></g> </svg>
